# xmcd CD database file
#
# Track frame offsets:
#	183
#	13973
#	25223
#	38038
#	47853
#	60525
#	73190
#	84200
#	96433
#	112368
#	124293
#	134920
#	145158
#	157878
#	166098
#	176473
#
# Disc length: 2497 seconds
#
# Revision: 0
# Processed by: cddbd v1.4PL0 Copyright (c) Steve Scherf et al.
# Submitted via: CdAid (MTCDDB.DLL V2003.01.22)
#
DISCID=e509bf10
DTITLE=Charley Pride - All I have To Offer You Is me
DYEAR=2000
DGENRE=Country
TTITLE0=All I Have To Offer You Is me
TTITLE1=Help Me Make It Through The Night
TTITLE2=Rhinestone Cowboy
TTITLE3=Busted
TTITLE4=The Banks Of Ohio
TTITLE5=Distant Drums
TTITLE6=Wings of A Dove
TTITLE7=Nothin' Left But Leavin'
TTITLE8=Me And Bobby McGee
TTITLE9=Folsom Prison Blues
TTITLE10=Comin' Down With Love
TTITLE11=Cotton Fields
TTITLE12=Crystal Chandelier
TTITLE13=Guess Things Happen That Way
TTITLE14=The Last Thing On My Mind
TTITLE15=Delta Town
EXTD=YEAR: ???? ID3G:  17 \nYEAR 2000 in field is a guess - no info on CD
EXTT0=
EXTT1=
EXTT2=
EXTT3=
EXTT4=
EXTT5=
EXTT6=
EXTT7=
EXTT8=
EXTT9=
EXTT10=
EXTT11=
EXTT12=
EXTT13=
EXTT14=
EXTT15=
PLAYORDER=
